<?xml version="1.0" encoding="UTF-8" standalone="no"?>

<svg
   width="249.99966"
   height="250.00014"
   viewBox="0 0 66.145745 66.145868"
   version="1.1"
   id="svg1"
   xml:space="preserve"
   xmlns="http://www.w3.org/2000/svg"
   xmlns:svg="http://www.w3.org/2000/svg"><defs
     id="defs1" /><g
     id="layer1"
     transform="translate(288.58884,242.53016)"><path
       style="fill:#01c7e5;fill-opacity:1;stroke-width:0.0843058"
       d="m -257.35565,-176.40399 c -1.28214,-0.0971 -1.47604,-0.11562 -2.23559,-0.21156 -1.53234,-0.19365 -2.83973,-0.4394 -4.04446,-0.7603 -0.97208,-0.2589 -1.27249,-0.3424 -1.58944,-0.44173 -3.44748,-1.08041 -6.58705,-2.6613 -9.45896,-4.76295 -0.46991,-0.34386 -1.18713,-0.88729 -1.39146,-1.05431 -0.63934,-0.52258 -0.75686,-0.6208 -0.78709,-0.6579 -0.0184,-0.0225 -0.12633,-0.11563 -0.24011,-0.20688 -0.11362,-0.0914 -0.29881,-0.2536 -0.41126,-0.36065 -0.1125,-0.10713 -0.27951,-0.25895 -0.37121,-0.3375 -0.32509,-0.27844 -1.27574,-1.22765 -1.69359,-1.69101 -0.23312,-0.25853 -0.52589,-0.57579 -0.65062,-0.70505 -0.236,-0.24454 -0.637,-0.70752 -0.979,-1.13029 -0.1095,-0.1355 -0.20445,-0.25125 -0.2109,-0.2574 -0.0995,-0.0949 -1.01972,-1.3147 -1.42682,-1.89125 -0.1155,-0.1635 -0.74785,-1.11528 -0.86255,-1.29817 -0.054,-0.0861 -0.1495,-0.23725 -0.21212,-0.33572 -0.0626,-0.0985 -0.18215,-0.28985 -0.2656,-0.42525 -0.0835,-0.13549 -0.1686,-0.27139 -0.18921,-0.30218 -0.9987,-1.49085 -2.43662,-4.87188 -3.0984,-7.28533 -0.27882,-1.01685 -0.51727,-2.1051 -0.67927,-3.09985 -0.1773,-1.08889 -0.27501,-1.93825 -0.38493,-3.34614 l -0.0506,-0.64907 4e-5,-2.09268 10e-6,-2.09273 0.0616,-0.63789 c 0.25088,-2.59251 0.46303,-3.86726 1.00753,-6.0543 0.24957,-1.00259 0.68055,-2.34074 1.0596,-3.29014 0.70711,-1.77107 1.50122,-3.41209 2.30165,-4.7562 0.0916,-0.15382 0.17758,-0.3 0.191,-0.32472 0.10588,-0.19518 0.6327,-1.00618 1.02498,-1.57773 0.7213,-1.05087 2.09417,-2.77716 2.77677,-3.49157 0.1235,-0.12934 0.4195,-0.44465 0.65777,-0.70084 0.2383,-0.25621 0.52967,-0.55333 0.64752,-0.66028 0.11788,-0.107 0.4179,-0.38684 0.6669,-0.622 2.64682,-2.50005 5.9964,-4.72485 9.04462,-6.00739 1.71542,-0.72179 3.13488,-1.2206 4.45716,-1.5664 0.14668,-0.0384 0.32179,-0.0844 0.38904,-0.102 0.31453,-0.083 1.38068,-0.32794 1.68948,-0.38815 1.14396,-0.22309 2.56322,-0.4018 4.14596,-0.52206 l 0.37792,-0.0286 1.81174,1e-5 1.81175,3e-5 0.867,0.0621 c 1.54739,0.11088 1.84624,0.153 2.32139,0.32762 0.62171,0.22845 1.19781,0.81072 1.44779,1.46327 l 0.0669,0.17438 0.0465,0.27325 0.0465,0.27327 -0.0134,0.235 c -0.006,0.12935 -0.0381,0.34375 -0.0685,0.47665 l -0.0549,0.24163 -0.0979,0.20792 c -0.38329,0.81463 -1.14334,1.38299 -2.04329,1.52799 l -0.22827,0.0369 -1.65614,-0.026 c -3.12935,-0.0494 -4.27655,-0.0166 -5.77986,0.16566 -3.50367,0.42441 -7.2919,1.7411 -10.28149,3.57355 -1.10201,0.67552 -1.73595,1.11189 -2.77701,1.91177 -0.42661,0.32772 -1.31721,1.08497 -1.68102,1.42932 -0.1045,0.0989 -0.29949,0.27715 -0.43349,0.39625 -0.3662,0.3255 -1.06016,1.0231 -1.33194,1.33897 -0.13234,0.15383 -0.31215,0.35533 -0.39947,0.44763 -0.0874,0.0924 -0.24318,0.2686 -0.3464,0.3917 -0.10312,0.12313 -0.25385,0.29935 -0.33477,0.3917 -0.27275,0.31115 -0.91086,1.15967 -1.31267,1.74537 -0.82586,1.20395 -1.39645,2.17365 -2.07445,3.52556 -0.31286,0.62382 -0.42251,0.86022 -0.69562,1.49957 -0.52861,1.2375 -1.17316,3.24559 -1.42961,4.45404 -0.0235,0.11087 -0.0634,0.29711 -0.0884,0.41406 -0.1225,0.57083 -0.23441,1.19369 -0.34176,1.90247 -0.082,0.54092 -0.19904,1.73981 -0.24045,2.46201 l -0.0289,0.50357 v 1.09674 1.09669 l 0.028,0.53719 c 0.0489,0.93974 0.17008,2.1719 0.27518,2.79773 0.89158,5.30745 2.66306,9.16518 6.13063,13.35043 0.17834,0.21525 0.38465,0.45695 0.45854,0.53719 0.0739,0.0801 0.24355,0.27175 0.37701,0.42564 0.54731,0.6311 1.90558,1.95005 2.79682,2.71582 1.50777,1.29563 3.32742,2.49544 5.2616,3.46942 0.72002,0.36256 0.8432,0.42011 1.62282,0.75819 0.8766,0.38012 1.53864,0.62667 2.5009,0.93137 0.4972,0.1575 1.65452,0.4825 2.04517,0.57445 0.99223,0.2335 1.70619,0.3597 3.03442,0.5363 0.85843,0.11413 1.90283,0.18478 3.04553,0.20598 l 0.7225,0.0134 0.55572,-0.0369 c 0.9802,-0.065 1.18685,-0.0824 1.92293,-0.16083 1.83875,-0.19622 2.97132,-0.41927 4.87952,-0.961 2.73037,-0.77511 5.71551,-2.20019 8.08068,-3.85757 1.47766,-1.03547 2.505,-1.90172 3.86486,-3.25882 0.88035,-0.87856 1.24335,-1.27866 1.98271,-2.1853 1.02385,-1.25556 2.07802,-2.81354 2.77752,-4.10503 0.04,-0.0739 0.10587,-0.19471 0.14632,-0.26859 0.20358,-0.37111 0.29993,-0.55825 0.54164,-1.05196 0.14469,-0.29544 0.29564,-0.61269 0.33549,-0.705 0.0399,-0.0924 0.11212,-0.25349 0.16067,-0.35814 0.21327,-0.4605 0.58427,-1.44575 0.8006,-2.12626 0.80703,-2.53883 1.12067,-4.27284 1.34075,-7.41332 l 0.0356,-0.5085 -0.01,-1.3604 -0.01,-1.3604 -0.0359,-0.40288 c -0.0196,-0.22157 -0.0459,-0.49351 -0.058,-0.6043 -0.0113,-0.11087 -0.0329,-0.32732 -0.0456,-0.48121 -0.0706,-0.84582 -0.26459,-2.0371 -0.4907,-3.01549 -0.0604,-0.2613 -0.12966,-0.59219 -0.154,-0.73524 l -0.0441,-0.2601 v -0.21135 c 0,-1.27255 1.01175,-2.38465 2.33073,-2.56195 l 0.19241,-0.0259 0.2001,0.0134 c 1.00375,0.066 1.83669,0.66321 2.28418,1.6378 0.21834,0.47541 0.64288,2.71333 0.84918,4.47638 0.0951,0.8137 0.12212,1.08351 0.1565,1.56671 0.0184,0.25853 0.0431,0.58588 0.0554,0.72743 l 0.022,0.25738 v 1.35412 1.3541 l -0.0324,0.35811 c -0.0179,0.19698 -0.0429,0.52429 -0.0555,0.72743 -0.0134,0.2031 -0.0326,0.44986 -0.0444,0.54835 -0.0113,0.0985 -0.0314,0.31 -0.044,0.47001 -0.0386,0.48985 -0.15566,1.39214 -0.2453,1.89129 -0.0113,0.0676 -0.0526,0.29431 -0.09,0.5036 -0.0874,0.48941 -0.29311,1.53058 -0.35385,1.79054 -0.31923,1.36639 -0.67878,2.5735 -1.09671,3.68184 -0.29827,0.79096 -0.37927,0.99715 -0.57611,1.466 -0.31922,0.76045 -0.83073,1.82369 -1.21669,2.52914 -0.101,0.18469 -0.21395,0.39115 -0.25095,0.45885 -0.7004,1.28184 -1.96165,3.17353 -2.93392,4.4005 -0.26465,0.33403 -0.96499,1.18004 -1.17634,1.42109 -0.069,0.0789 -0.23021,0.26405 -0.35811,0.41177 -0.23593,0.2725 -1.79767,1.86578 -2.30622,2.35286 -0.6114,0.58556 -1.80436,1.57019 -3.10108,2.5595 -0.43343,0.33066 -0.96534,0.69781 -1.76732,1.21992 -0.0795,0.0516 -0.24455,0.1595 -0.3668,0.2393 -0.93825,0.6129 -2.2482,1.32938 -3.51192,1.92082 -1.17951,0.55203 -1.77984,0.79483 -3.26831,1.3218 -0.97916,0.3467 -2.15849,0.67785 -3.13443,0.88018 -0.26899,0.0556 -0.6091,0.12666 -0.75582,0.15749 -0.41353,0.087 -1.58377,0.28245 -1.95627,0.32685 -0.11,0.0134 -0.2651,0.0335 -0.34457,0.0454 -0.36812,0.0546 -1.47382,0.15234 -2.27858,0.20124 -0.39497,0.024 -3.32519,0.0225 -3.64577,-8.4e-4 z m 0.089,-13.77713 c -4.38031,-0.31079 -8.38794,-2.66802 -10.8908,-6.40583 -1.312,-1.95932 -2.00695,-3.95528 -2.33945,-6.71901 l -0.039,-0.32451 -8.2e-4,-1.02959 -8.3e-4,-1.02956 0.04,-0.32454 c 0.30225,-2.4559 1.00264,-4.61863 2.10685,-6.50577 0.0966,-0.16516 0.17563,-0.30381 0.17563,-0.30836 0,-0.0205 0.32956,-0.5817 0.59219,-1.00835 0.15915,-0.2585 0.41244,-0.67145 0.56289,-0.91765 0.1505,-0.24625 0.29582,-0.4829 0.32304,-0.526 0.0271,-0.043 0.13351,-0.2135 0.23601,-0.3787 0.10262,-0.16515 0.2684,-0.4321 0.36842,-0.5931 0.22053,-0.35503 0.42755,-0.69297 0.85118,-1.38951 0.0749,-0.12312 0.17488,-0.28425 0.22225,-0.3581 0.0474,-0.0739 0.16215,-0.26017 0.25515,-0.41406 0.093,-0.15382 0.25318,-0.41575 0.356,-0.58192 0.22226,-0.35928 0.45894,-0.74584 0.48996,-0.80029 0.0113,-0.0215 0.11237,-0.18253 0.2223,-0.3579 0.11,-0.17538 0.21005,-0.33653 0.22228,-0.35813 0.0113,-0.0216 0.11238,-0.18302 0.2223,-0.35877 0.11,-0.1757 0.21633,-0.34695 0.2362,-0.38048 0.0199,-0.0335 0.20053,-0.3178 0.40148,-0.6317 0.31537,-0.4927 0.45037,-0.70955 0.6739,-1.08247 0.0245,-0.0409 0.12062,-0.19414 0.21378,-0.34075 0.23271,-0.36654 0.30874,-0.48997 0.61901,-1.00522 0.14833,-0.2462 0.30708,-0.50807 0.35293,-0.58192 0.0459,-0.0739 0.22194,-0.36093 0.39128,-0.6379 0.37265,-0.60943 0.52882,-0.8618 0.70634,-1.14148 0.0741,-0.117 0.35923,-0.57868 0.63334,-1.02608 0.47983,-0.7832 1.00276,-1.63076 1.10683,-1.79406 0.0275,-0.043 0.11763,-0.19414 0.2004,-0.3357 0.43129,-0.73796 0.69994,-1.01166 1.11134,-1.13229 l 0.13335,-0.0391 0.21117,-8.3e-4 c 0.24728,-8.4e-4 0.40121,0.0321 0.59953,0.12849 l 0.14385,0.07 0.14764,0.1455 0.14769,0.1455 0.15381,0.2355 c 0.0846,0.1295 0.25679,0.4065 0.3825,0.61553 0.12567,0.20897 0.30325,0.49582 0.39452,0.63737 0.0911,0.1415 0.24233,0.3833 0.33576,0.53718 0.0934,0.15382 0.2671,0.43085 0.38595,0.61552 0.11887,0.18463 0.3307,0.52709 0.47075,0.76098 0.14,0.2339 0.40414,0.66194 0.58687,0.95122 0.18275,0.28928 0.43111,0.69218 0.55191,0.89528 0.20891,0.3513 0.75877,1.24931 0.91132,1.48841 0.0394,0.0615 0.13484,0.21765 0.21244,0.3469 0.0775,0.12917 0.1957,0.32062 0.2626,0.42527 0.0669,0.10462 0.21001,0.3338 0.31806,0.50927 0.108,0.17548 0.25993,0.4172 0.33746,0.53718 0.0775,0.12 0.25925,0.40948 0.40377,0.64338 0.1445,0.2339 0.30508,0.4907 0.3568,0.57073 0.0931,0.144 0.30123,0.48105 1.15429,1.8689 0.49364,0.80305 0.45179,0.73615 0.78628,1.2566 0.13565,0.21105 0.32575,0.5132 0.4225,0.67145 0.29302,0.47935 0.88623,1.43408 1.34689,2.16784 0.23961,0.38161 0.50166,0.7996 0.58231,0.92885 2.02888,3.25107 2.88612,5.66597 2.99015,8.42312 l 0.026,0.69019 -0.0251,0.57439 c -0.047,1.07204 -0.23775,2.29809 -0.5073,3.26025 -0.47803,1.70639 -0.97603,2.81456 -1.91605,4.26377 -0.3398,0.52385 -1.63631,2.11856 -1.9288,2.37246 -0.17835,0.15484 -0.63204,0.55889 -0.72004,0.64129 -0.74765,0.70011 -2.269,1.68184 -3.37153,2.17569 -0.1365,0.0611 -0.28158,0.12681 -0.32236,0.14581 -1.02547,0.47825 -2.60146,0.89489 -4.0422,1.06854 l -0.38904,0.0469 -1.02259,0.006 c -0.56241,0.004 -1.07259,0.004 -1.13374,-8.2e-4 z m 12.61563,-32.7703 c -0.78514,-0.0369 -1.4958,-0.26229 -2.10608,-0.66812 l -0.19475,-0.1295 -0.25655,-0.25877 -0.25655,-0.2588 -0.13983,-0.21263 c -0.33925,-0.51572 -0.5554,-1.07562 -0.66256,-1.71632 l -0.0405,-0.2421 v -3.81612 -3.81613 l 0.0289,-0.15666 c 0.19905,-1.08129 0.60459,-1.80396 1.31329,-2.34019 l 0.2362,-0.17878 0.31125,-0.15517 0.3112,-0.15515 0.20005,-0.0565 c 0.11,-0.031 0.29511,-0.0731 0.41126,-0.0935 l 0.21119,-0.0371 0.89785,-0.01 0.89785,-0.01 -0.015,-0.16893 c -0.009,-0.093 -0.015,-0.35434 -0.015,-0.58094 v -0.412 l -0.0204,0.0134 c -0.0113,0.006 -0.0236,0.005 -0.0279,-0.006 -0.004,-0.01 -0.0676,-0.0509 -0.14117,-0.09 -0.0735,-0.0391 -0.19145,-0.11687 -0.262,-0.17263 l -0.12814,-0.10138 -0.1347,-0.18295 c -0.2355,-0.31979 -0.36985,-0.65089 -0.42115,-1.03799 l -0.0264,-0.19841 0.0112,-0.26859 0.0113,-0.26856 0.0559,-0.18404 c 0.23853,-0.7867 0.76323,-1.29861 1.52569,-1.48855 l 0.18895,-0.0471 0.31123,-8.4e-4 0.31125,-8.4e-4 0.15565,0.0311 c 0.85596,0.17136 1.50781,0.91957 1.61076,1.84892 l 0.0224,0.20159 -0.0215,0.24605 c -0.0331,0.37951 -0.1045,0.61036 -0.29171,0.94485 l -0.0974,0.17373 -0.15566,0.15765 c -0.0856,0.0869 -0.25817,0.22637 -0.38349,0.31027 l -0.22786,0.1525 v 0.5684 0.56843 h 5.11548 5.11547 l -0.0166,-0.10638 c -0.009,-0.0585 -0.0184,-0.32122 -0.0206,-0.5839 l -0.005,-0.47757 -0.13183,-0.0711 c -0.4696,-0.25345 -0.79605,-0.68097 -0.94295,-1.2349 l -0.0474,-0.17839 -0.0134,-0.251 -0.0134,-0.251 0.028,-0.20784 c 0.12312,-0.91705 0.77037,-1.63935 1.62826,-1.81735 l 0.17135,-0.0355 h 0.22076 c 0.65247,0 1.18702,0.24992 1.59192,0.74427 l 0.1605,0.1959 0.11513,0.22168 0.11512,0.2217 0.0446,0.17552 0.0446,0.17553 0.0134,0.26859 0.0134,0.26858 -0.0254,0.2317 -0.0254,0.2317 -0.0581,0.17116 c -0.14814,0.4365 -0.42656,0.78375 -0.85856,1.07095 l -0.19453,0.12934 v 0.5542 0.55419 H -229 c 2.54749,0 3.82712,0.9374 4.18657,3.06676 l 0.0396,0.23458 0.009,3.43562 0.009,3.43566 -0.0239,0.3917 c -0.0215,0.35525 -0.04,0.49934 -0.11137,0.87006 -0.2641,1.37208 -1.49194,2.51974 -3.02434,2.82687 l -0.25567,0.0511 -8.18067,8.4e-4 c -4.49942,0 -8.23575,-8.4e-4 -8.303,-0.005 z m 4.03852,-4.48261 c 1.09822,-0.17949 1.91034,-0.96749 2.15639,-2.09236 l 0.0344,-0.15668 0.0112,-0.33575 0.0113,-0.33571 -0.0371,-0.19861 c -0.20674,-1.1044 -0.94726,-1.909 -1.99403,-2.16663 l -0.20814,-0.0511 -0.32234,8.3e-4 -0.32232,8.3e-4 -0.18399,0.0379 c -0.51262,0.10538 -0.98457,0.35395 -1.33652,0.70424 l -0.17444,0.17356 -0.13667,0.21029 c -0.2085,0.32065 -0.3175,0.5714 -0.42919,0.98716 l -0.051,0.19025 v 0.40287 0.40289 l 0.0415,0.17905 c 0.32559,1.40395 1.57151,2.27137 2.94107,2.04757 z m 9.36247,-0.042 c 1.09789,-0.29044 1.85849,-1.1534 1.96132,-2.22535 l 0.024,-0.25021 -0.0134,-0.2462 c -0.0331,-0.58928 -0.17602,-1.01995 -0.48147,-1.4523 l -0.13869,-0.19634 -0.22576,-0.21645 -0.2258,-0.21646 -0.17715,-0.10538 c -0.24039,-0.143 -0.5104,-0.25742 -0.7593,-0.32167 l -0.20734,-0.0535 -0.23727,-0.0134 -0.23729,-0.0134 -0.2223,0.0386 c -1.16957,0.20315 -1.98347,0.98718 -2.21107,2.1298 l -0.0454,0.22735 8e-5,0.3098 7e-5,0.30985 0.0341,0.19647 c 0.19621,1.12935 0.9827,1.9272 2.0887,2.11881 0.0734,0.0134 0.15832,0.0275 0.18895,0.0329 0.0305,0.005 0.20065,0.006 0.37792,0.004 l 0.32235,-0.006 z"
       id="path3" /></g></svg>
